<?xml version="1.0" encoding="utf-8"?>
<!-- Generator: Adobe Illustrator 23.0.3, SVG Export Plug-In . SVG Version: 6.00 Build 0)  -->
<svg version="1.1" id="Calque_1" xmlns="http://www.w3.org/2000/svg" xmlns:xlink="http://www.w3.org/1999/xlink" x="0px" y="0px"
	 width="24px" height="24px" viewBox="0 0 24 24" style="enable-background:new 0 0 24 24;" xml:space="preserve">
<style type="text/css">
	.st0{fill:#F8F502;stroke:#000000;stroke-width:0.25;stroke-miterlimit:10;}
</style>
<path class="st0" d="M6,4.8C5.4,6.1,5.7,8.4,5.8,10c-0.6,0.3-1.4-0.3-1.9-0.3c-0.5,0-1,0.3-1.1,0.8c-0.1,0.3,0.1,0.8,1.2,1.3
	c0.4,0.2,1.4,0.4,1.6,0.9c0.3,0.8-1.7,4.3-4.8,4.8c-0.2,0-0.4,0.3-0.4,0.5c0.1,0.9,2.2,1.3,3.1,1.5c0.1,0.1,0.2,0.7,0.3,1.1
	C3.8,20.7,4,21,4.3,21c0.5,0,1.3-0.4,2.7-0.1C8.3,21,9.6,23,12.1,23c2.3,0,3.6-1.9,4.9-2.1c0.8-0.1,1.4-0.1,2.1,0.1
	c0.5,0.1,0.9,0.2,1.1-0.3c0.1-0.4,0.2-1,0.3-1.1c0.9-0.1,3.1-0.5,3.1-1.5c0-0.2-0.2-0.5-0.4-0.5c-3.1-0.5-5.1-4-4.8-4.8
	c0.2-0.5,1.2-0.7,1.6-0.9c0.8-0.3,1.2-0.7,1.2-1.1c0-0.6-0.7-0.9-1.2-0.9c-0.5,0-1.2,0.6-1.8,0.3c0.1-1.6,0.3-4-0.3-5.3
	C16.9,2.3,14.4,1,12,1C9.6,1,7.1,2.3,6,4.8z"/>
</svg>
